<!DOCTYPE svg PUBLIC "-//W3C//DTD SVG 1.1//EN" "http://www.w3.org/Graphics/SVG/1.1/DTD/svg11.dtd">
<!-- Uploaded to: SVG Repo, www.svgrepo.com, Transformed by: SVG Repo Mixer Tools -->
<svg fill="#000000" height="800px" width="800px" version="1.1" id="Layer_1" xmlns="http://www.w3.org/2000/svg" xmlns:xlink="http://www.w3.org/1999/xlink"  xml:space="preserve" transform="rotate(270)">

<g id="SVGRepo_bgCarrier" stroke-width="0"/>

<g id="SVGRepo_tracerCarrier" stroke-linecap="round" stroke-linejoin="round"/>

  <g> <g> <path d="M200.533,349.867h-51.2c-4.71,0-8.533,3.823-8.533,8.533v145.067c0,4.71,3.823,8.533,8.533,8.533h51.2 c4.71,0,8.533-3.823,8.533-8.533V358.4C209.067,353.69,205.244,349.867,200.533,349.867z"/> </g> </g> <g> <g> <path d="M302.933,0h-93.867C171.426,0,140.8,34.449,140.8,76.8v88.277c0,1.638,0.939,3.132,2.415,3.849l59.733,28.715 c2.833,1.365,6.118-0.7,6.118-3.849V93.867c0-13.875,7.817-25.6,17.067-25.6h76.8c4.71,0,8.533-3.823,8.533-8.533v-51.2 C311.467,3.823,307.644,0,302.933,0z"/> </g> </g> <g> <g> <path d="M388.267,162.133h-59.733c-14.14,0-25.6,11.46-25.6,25.6v55.296c0,1.638,0.939,3.132,2.415,3.849l42.667,20.514 c2.833,1.357,6.118-0.708,6.118-3.857v-41.668c0-4.224,0.981-7.177,1.724-8.533h32.41c4.71,0,8.533-3.823,8.533-8.533v-34.133 C396.8,165.956,392.977,162.133,388.267,162.133z"/> </g> </g> <g> <g> <path d="M277.333,349.867h-42.667c-4.71,0-8.533,3.823-8.533,8.533v145.067c0,4.71,3.823,8.533,8.533,8.533h42.667 c4.71,0,8.533-3.823,8.533-8.533V358.4C285.867,353.69,282.044,349.867,277.333,349.867z"/> </g> </g> <g> <g> <path d="M345.6,349.867h-34.133c-4.71,0-8.533,3.823-8.533,8.533v145.067c0,4.71,3.823,8.533,8.533,8.533H345.6 c4.71,0,8.533-3.823,8.533-8.533V358.4C354.133,353.69,350.31,349.867,345.6,349.867z"/> </g> </g> <g> <g> <path d="M345.6,85.333h-76.8c-23.56,0-42.667,19.106-42.667,42.667v78.106c0,1.638,0.939,3.132,2.415,3.849l51.2,24.619 c2.833,1.357,6.118-0.708,6.118-3.857V153.6c0-4.71,3.823-8.533,8.533-8.533h51.2c4.71,0,8.533-3.823,8.533-8.533V93.867 C354.133,89.156,350.31,85.333,345.6,85.333z"/> </g> </g> <g> <g> <path d="M374.886,299.255L127.42,180.804c-5.666-2.722-12.22,1.408-12.22,7.689v135.774c0,4.71,3.823,8.533,8.533,8.533H371.2 c4.71,0,8.533-3.823,8.533-8.533v-17.314C379.733,303.667,377.847,300.672,374.886,299.255z"/> </g> </g>  

</svg>